HIERARCHY
ROOT Spine
{
    OFFSET 0.0 0.0 -0.0
    CHANNELS 6 Xposition Yposition Zposition Zrotation Xrotation Yrotation
    JOINT ShoulderCenter
    {
        OFFSET 0.0 0.3107941448688507 0.0
        CHANNELS 3 Zrotation Xrotation Yrotation
        JOINT LeftShoulder
        {
            OFFSET 0.1942979395389557 0.0 0.0
            CHANNELS 3 Zrotation Xrotation Yrotation
            JOINT LeftElbow
            {
                OFFSET 0.26162880659103394 0.0 0.0
                CHANNELS 3 Zrotation Xrotation Yrotation
                JOINT LeftHand
                {
                    OFFSET 0.33587533235549927 0.0 0.0
                    CHANNELS 3 Zrotation Xrotation Yrotation
                    End Site
                    {
                        OFFSET 0.13435012102127075 0.0 0.0
                    }
                }
            }
        }
        JOINT RightShoulder
        {
            OFFSET -0.1942979395389557 0.0 0.0
            CHANNELS 3 Zrotation Xrotation Yrotation
            JOINT RightElbow
            {
                OFFSET -0.26162880659103394 0.0 0.0
                CHANNELS 3 Zrotation Xrotation Yrotation
                JOINT RightHand
                {
                    OFFSET -0.33587533235549927 0.0 0.0
                    CHANNELS 3 Zrotation Xrotation Yrotation
                    End Site
                    {
                        OFFSET -0.13435012102127075 0.0 0.0
                    }
                }
            }
        }
        End Site
        {
            OFFSET 0.0 0.12431765347719193 0.0
        }
    }
    JOINT LeftHip
    {
        OFFSET 0.1617882328316623 -0.1617882328316623 0.0
        CHANNELS 3 Zrotation Xrotation Yrotation
        JOINT LeftKnee
        {
            OFFSET 0.0 -0.4168095290660858 0.0
            CHANNELS 3 Zrotation Xrotation Yrotation
            JOINT LeftFoot
            {
                OFFSET 0.0 -0.46998077630996704 0.0
                CHANNELS 3 Zrotation Xrotation Yrotation
                End Site
                {
                    OFFSET 0.0 0.0 0.18799230456352234
                }
            }
        }
    }
    JOINT RightHip
    {
        OFFSET -0.1617882328316623 -0.1617882328316623 0.0
        CHANNELS 3 Zrotation Xrotation Yrotation
        JOINT RightKnee
        {
            OFFSET 0.0 -0.4168095290660858 0.0
            CHANNELS 3 Zrotation Xrotation Yrotation
            JOINT RightFoot
            {
                OFFSET 0.0 -0.46998077630996704 0.0
                CHANNELS 3 Zrotation Xrotation Yrotation
                End Site
                {
                    OFFSET 0.0 0.0 0.18799230456352234
                }
            }
        }
    }
}
MOTION
Frames: 13
Frame Time: 0.03333333333333333
-0.03500000014901161 0.1599999964237213 0.3149999976158142 -2.216794311254185 -2.583861582319316 -3.602369681948485 -1.528196580127629e-08 1.2965778146745973e-07 3.77973491675184 90.08567644996879 5.25431643763713 166.02158052416596 -7.179482957178385e-06 4.023044113520031e-07 41.67705462331098 -3.1805546814635168e-15 0.0 0.0 -93.75734451589398 11.194805564565375 -157.39358582008214 -1.1231730632096243e-06 4.952711493338373e-07 -43.78017058570561 0.0 -7.951386703658792e-16 0.0 6.8466508461949 -0.614488488220561 -23.914901449662995 1.0054797415965269 8.773458882362888 -27.62028843813166 0.0 0.0 -1.1927080055488188e-15 -19.853359040658415 3.1257996725316217 76.19813483625722 -13.138339390031264 -3.3999974757853724 -122.86382243386242 0.0 -7.951386703658792e-16 0.0
-0.03500000014901161 0.1599999964237213 0.3149999976158142 -2.216794305711874 -2.583861415186238 -3.6224191020637826 4.574023317721063e-08 2.0085912836855347e-08 3.6505161512373734 90.14137241087222 5.6261477964925835 166.0160064329202 -7.648863250568547e-06 -2.0776645510650588e-06 41.84082804992457 -3.1805546814635168e-15 -1.5902773407317584e-15 3.1805546814635168e-15 -93.74189451282027 11.128688950678955 -157.61460852139734 1.4337779172568363e-06 -1.4364332785209377e-06 -43.34575336117495 4.373262687012335e-15 7.951386703658791e-16 -3.1805546814635168e-15 6.8468638152914245 -0.6120985118681032 -23.89499357445361 1.0054797415965269 8.773458882362888 -27.62028843813166 0.0 0.0 -1.1927080055488188e-15 -19.85438720512277 3.1189903973105984 77.37690122618883 -13.07083692258023 -3.2088977397177083 -124.22067817303603 3.1805546814635168e-15 -9.931289170612858e-32 -3.578124016646457e-15
-0.03500000014901161 0.1599999964237213 0.3149999976158142 -2.4013195636862465 -2.58352654590593 -3.6107242885111255 2.9580262408481667e-07 9.702982187671372e-08 3.6237717026882788 90.47190701638912 5.30981633430039 166.0632317054487 -1.413098907273563e-07 1.5734404846304065e-06 42.0116835375866 -4.770832022195275e-15 0.0 0.0 -93.46260450250159 10.895982538685065 -157.63355384704715 1.1667726219182802e-06 -1.6748592974301368e-06 -43.321949706285615 1.5902773407317584e-15 -4.4139062980501586e-32 -3.1805546814635168e-15 6.8926227292955975 -0.6118870771614986 -23.338223435077115 1.2183477030421213 8.825374873395665 -27.583428120599937 -7.951386703658791e-16 3.975693351829395e-16 9.442271710594814e-15 -19.669575053421863 3.1363855836347097 77.36186322885833 -13.093113862705414 -3.1030134284294397 -125.3940298955617 -1.5902773407317588e-15 1.5902773407317588e-15 -7.951386703658794e-16
-0.03400000184774399 0.1599999964237213 0.3149999976158142 -2.2167947388718074 -2.5838615690679947 -3.602369691825851 7.349196963225038e-08 1.7261586459326235e-07 3.6237378260727704 90.33685548114072 5.6265473308605385 166.22310197923247 -8.410341839088263e-07 -7.92475157022589e-07 41.63233747377223 2.385416011097637e-15 1.5902773407317584e-15 4.770832022195274e-15 -93.6513768528655 10.793748835974872 -157.4236866169457 -1.2145405359010296e-06 -3.0020219090717183e-06 -43.6849494928338 1.1034765745125397e-32 7.951386703658792e-16 -1.5902773407317584e-15 6.846651272010967 -0.614488476170416 -23.914901457832585 0.8901822582231081 8.71664720691957 -27.294153471219918 -1.3793457181406746e-33 -7.951386703658794e-16 -1.9878466759146985e-16 -19.726960418267154 3.1369001521549755 75.573447621098 -13.033708223838932 -3.387839292829978 -121.17889610432836 -3.1805546814635168e-15 -7.951386703658792e-16 -1.5902773407317584e-15
-0.03400000184774399 0.1599999964237213 0.3149999976158142 -2.216794686269437 -2.7681433573321863 -3.29514345458635 4.246550677467117e-08 2.9439870895121897e-07 3.318374343060498 90.34898657779816 5.599200683464889 166.0385378968709 3.253899930193119e-06 -2.9250199602760607e-07 41.777936299413156 -6.361109362927033e-15 8.827812596100317e-32 -1.5902773407317582e-15 -93.82062576828919 10.527519095706444 -157.25843619676627 1.219544784248658e-06 -1.7809151542877882e-06 -43.4835809959098 3.975693351829397e-16 -2.3854160110976384e-15 -1.5902773407317588e-15 6.832475770125664 -0.46843626942423405 -24.24186204129634 0.8307589268888744 8.831272431075657 -27.50794190431761 -7.951386703658792e-16 -1.8966003624434275e-32 2.7332891793827097e-15 -19.861143943455264 3.5390529744565824 77.70189389259527 -13.232557694720708 -3.117123292035483 -122.38837328356843 0.0 0.0 -7.951386703658792e-16
-0.03400000184774399 0.1599999964237213 0.3149999976158142 -2.216794686269437 -2.7681433573321863 -3.29514345458635 1.7874068439098246e-07 3.409412463815001e-08 3.3180346085072565 90.34898625493815 5.599536881941795 166.03853532466195 3.5482918167687044e-06 1.6694276761654953e-07 41.77793591838212 -8.74652537402467e-15 3.180554681463516e-15 3.1805546814635168e-15 -93.80251670035099 10.484705759352869 -157.26176241891972 7.507286886623486e-08 1.1128695916348974e-06 -43.63812594088727 7.951386703658791e-16 3.1805546814635168e-15 3.1805546814635168e-15 6.832475770125664 -0.46843626942423405 -24.24186204129634 0.8307589268888744 8.831272431075657 -27.50794190431761 -7.951386703658792e-16 -1.8966003624434275e-32 2.7332891793827097e-15 -19.861143943455264 3.5390529744565824 77.70189389259527 -13.178236372912455 -3.2601704867709835 -120.53377723415257 0.0 1.5902773407317584e-15 0.0
-0.03400000184774399 0.1599999964237213 0.3160000145435333 -2.2167947881249117 -2.9523729520560935 -3.6028761457016585 -7.58735321025422e-08 9.803676323385794e-08 3.6272893637160517 90.36711947415633 5.596863455318876 165.85343616313716 3.5482918167687044e-06 1.6694276761654953e-07 41.77793591838212 -8.74652537402467e-15 3.180554681463516e-15 3.1805546814635168e-15 -93.83645970614819 10.473952445016385 -157.07472107130508 7.507286886623486e-08 1.1128695916348974e-06 -43.63812594088727 7.951386703658791e-16 3.1805546814635168e-15 3.1805546814635168e-15 6.677346539544097 -0.11950781873552616 -23.768486040502253 1.1049146730273764 8.653679556631268 -26.865725740095606 -7.951386703658791e-16 3.9756933518293955e-16 -2.584200678689107e-15 -19.89420302879262 3.607357893176925 77.68784350165177 -13.26747796726958 -3.3758929758060088 -123.67074452370882 3.1805546814635176e-15 7.951386703658794e-16 -7.951386703658794e-16
-0.03400000184774399 0.1599999964237213 0.3160000145435333 -2.216794625426723 -2.7681486955469583 -3.6026416880221324 2.0303353414205848e-08 -3.017918576812969e-07 3.476267181385932 90.4105110634753 5.99455742348498 166.0313298001887 -1.9244049920849727e-06 2.3761399182337385e-06 41.79577175078461 3.1805546814635168e-15 -1.5902773407317584e-15 4.4139062980501586e-32 -93.85535684914865 10.574285443513999 -157.47071169358128 -3.5172422679564595e-07 -3.6558625861956236e-06 -43.60586476067706 -3.975693351829397e-16 -1.1034765745125397e-32 3.1805546814635176e-15 6.8348737093706955 -0.431842244298233 -23.55582357702648 0.7741224181409331 8.76946564165554 -26.95691220856752 7.951386703658792e-16 -1.1927080055488188e-15 -3.9259971849315285e-15 -19.86846122176153 3.2986905786138783 77.42086424529246 -13.180647122106379 -3.2415802498762694 -125.2689782595393 -1.5902773407317584e-15 -7.951386703658792e-16 3.1805546814635168e-15
-0.03400000184774399 0.1599999964237213 0.3160000145435333 -2.2167945942428915 -2.768148623375355 -3.2769896420094424 6.818209138968957e-08 -3.100825650738743e-07 3.299880741734463 90.4104012204207 5.845295913953491 166.03240507412832 -1.9244049920849727e-06 2.3761399182337385e-06 41.79577175078461 3.1805546814635168e-15 -1.5902773407317584e-15 4.4139062980501586e-32 -93.85724706626635 10.723211586582435 -157.4604899832971 6.580426097639903e-07 -9.18556401656668e-07 -43.60587730988933 3.1805546814635164e-15 3.975693351829395e-15 3.1805546814635164e-15 6.839391677403931 -0.6087951810995559 -22.737924249957356 0.8903527809813587 8.877014396928363 -27.65323792731963 7.951386703658792e-16 7.951386703658792e-16 -1.0933156717530838e-15 -19.84093749589073 3.2733880644826976 76.90499535476516 -13.015699993631006 -3.3559838317353603 -123.93265078367831 0.0 -7.951386703658794e-16 0.0
-0.03400000184774399 0.1599999964237213 0.3160000145435333 -2.2167946336949167 -2.7681487056977794 -3.2951435639755298 1.3584985696911718e-07 -1.7916896273632998e-07 3.3180347663615457 90.4104012204207 5.845295913953491 166.03240507412832 -1.9244049920849727e-06 2.3761399182337385e-06 41.79577175078461 3.1805546814635168e-15 -1.5902773407317584e-15 4.4139062980501586e-32 -93.93103673984506 10.954330854837346 -157.51837112651486 2.0284048377383946e-06 -1.996923185391807e-06 -43.782977661788024 8.746525374024672e-15 0.0 0.0 6.977561656293306 -0.5988092699200743 -23.288918833224308 0.6625348582376092 8.806870821690644 -27.624099652570614 0.0 0.0 -1.838758175221095e-15 -19.841913476461908 3.2672264537183615 76.92210042223059 -13.038311354434581 -3.250039429731795 -125.05649318402949 1.5902773407317582e-15 -1.6552148617688095e-32 -1.1927080055488186e-15
-0.03400000184774399 0.1599999964237213 0.3160000145435333 -2.216794646052163 -2.952372895470908 -3.295391638688274 -2.3307412265002662e-07 4.671323491700052e-09 3.3198048004803975 90.42933147088893 5.84242385013571 165.84723500313447 -1.9244049920849727e-06 2.3761399182337385e-06 41.79577175078461 3.1805546814635168e-15 -1.5902773407317584e-15 4.4139062980501586e-32 -93.98408326439096 10.521351769740367 -157.58373029096822 1.0018915652419212e-06 -1.93343412666986e-06 -43.350518732883955 -1.1927080055488186e-15 -7.951386703658791e-16 -8.276074308844047e-33 6.966776371515189 -0.41621966922739945 -23.310998465794665 0.7786198987625401 8.861691359584585 -27.947789659464544 -7.951386703658792e-16 -2.4138550067461804e-32 3.4787316828507214e-15 -19.85617569931617 3.440135132721635 76.98488848823344 -13.038311354434581 -3.250039429731795 -125.05649318402949 1.5902773407317582e-15 -1.6552148617688095e-32 -1.1927080055488186e-15
-0.03400000184774399 0.1599999964237213 0.3160000145435333 -2.2167947023759367 -2.95237282859938 -2.95145585751335 -7.904837007612706e-08 8.253232136661948e-08 2.975869286881738 90.42706220982693 5.833451897370862 165.84746759468715 1.9538251388094033e-06 1.7353587699926993e-06 41.88180367993845 -2.385416011097637e-15 1.5902773407317582e-15 3.310429723537619e-32 -94.0723991656995 10.673744990151928 -157.4965362324975 2.398190261068516e-06 -3.2654400813901316e-06 -43.597660609779545 8.74652537402467e-15 -3.1805546814635168e-15 -3.1805546814635164e-15 6.964172474634307 -0.45792923481669756 -23.652406664071048 0.6625348582376092 8.806870821690644 -27.624099652570614 0.0 0.0 -1.838758175221095e-15 -19.845394017438316 3.692872303525632 76.10765927307845 -13.24680827334438 -3.4491571348643464 -120.98108862465904 0.0 0.0 -3.975693351829395e-15
-0.03400000184774399 0.1599999964237213 0.3160000145435333 -2.2167947023759367 -2.95237282859938 -2.95145585751335 -7.904837007612706e-08 8.253232136661948e-08 2.975869286881738 90.36711947415633 5.596863455318876 165.85343616313716 3.5482918167687044e-06 1.6694276761654953e-07 41.77793591838212 -8.74652537402467e-15 3.180554681463516e-15 3.1805546814635168e-15 -94.09293461336692 10.20230695358574 -157.61029013597056 5.47844302396735e-06 -3.452060199436641e-06 -43.53120415649453 4.770832022195275e-15 7.95138670365879e-16 -3.1805546814635168e-15 6.964172474634307 -0.45792923481669756 -23.652406664071048 0.7786198987625401 8.861691359584585 -27.947789659464544 -7.951386703658792e-16 -2.4138550067461804e-32 3.4787316828507214e-15 -19.971732013162953 3.682849892215373 76.72513795076692 -13.278741062601817 -3.389982942636182 -122.2908366371466 4.1380371544220234e-32 7.951386703658792e-16 -5.9635400277440935e-15
